<svg id="グループ_1" data-name="グループ 1" xmlns="http://www.w3.org/2000/svg" width="68.656" height="74" viewBox="0 0 68.656 74">
  <defs>
    <style>
      .cls-1 {
        fill: #ff505e;
      }

      .cls-1, .cls-2 {
        fill-rule: evenodd;
      }

      .cls-2 {
        fill: #fff;
      }
    </style>
  </defs>
  <path id="シェイプ_730" data-name="シェイプ 730" class="cls-1" d="M48.033,1.148c-8.135,0-24.492,20.4-24.649,20.6-6.8,8.918-9.521,15.46-8.329,20,1.494,5.675,7.589,6.153,13.4,6.217A17.056,17.056,0,0,1,28.7,53.1l-0.082.163c-3.267,6.56-1.955,11.8,4.129,16.5a22.377,22.377,0,0,0,2.3,1.528l0.783,0.444,0.848-.3a7.712,7.712,0,0,0,2.534-1.615q0.108-.1.215-0.213A10.827,10.827,0,0,0,43.6,72.749L44.262,73l0.672-.227a7.969,7.969,0,0,0,3.1-2.041,7.981,7.981,0,0,0,3.1,2.041L51.806,73l0.662-.254a10.825,10.825,0,0,0,4.166-3.138q0.107,0.111.215,0.213a7.716,7.716,0,0,0,2.533,1.615l0.849,0.3,0.783-.445a22.491,22.491,0,0,0,2.3-1.528c6.085-4.7,7.4-9.938,4.13-16.5L67.363,53.1a17.035,17.035,0,0,1,.254-5.135c5.807-.065,11.9-0.542,13.4-6.217,1.195-4.538-1.529-11.08-8.328-20C72.527,21.547,56.17,1.148,48.033,1.148Z" transform="translate(-13.719)"/>
  <path id="シェイプ_729" data-name="シェイプ 729" class="cls-2" d="M48.032,33.748a8.03,8.03,0,0,0-7.262-4.956c-4.447,0-8.054,3.9-8.054,8.718s3.607,8.717,8.054,8.717a8.027,8.027,0,0,0,7.262-4.955A8.034,8.034,0,0,0,55.3,46.226c4.447,0,8.053-3.9,8.053-8.717s-3.606-8.718-8.053-8.718A8.037,8.037,0,0,0,48.032,33.748Zm-6.644,5.479a4.546,4.546,0,1,1,4.764-4.54A4.657,4.657,0,0,1,41.388,39.227Zm18.055-4.54a4.77,4.77,0,1,1-4.764-4.542A4.656,4.656,0,0,1,59.443,34.687ZM48.033,4.4C43.2,4.4,17.446,32.24,19.438,39.806c0.916,3.479,11.382,4.086,11.382,4.086s3.489,7.614,2.42,11.4c-0.418,1.478-4.767,6.722,2.408,11.308A10.1,10.1,0,0,0,39.9,58.861c-0.031.538-.351,7.546,4.2,9.243,0,0,3.928-.84,3.933-8.757,0.005,7.918,3.931,8.757,3.935,8.757,4.547-1.7,4.227-8.706,4.2-9.243A10.1,10.1,0,0,0,60.419,66.6c7.174-4.587,2.824-9.831,2.409-11.308-1.072-3.79,2.417-11.4,2.417-11.4s10.468-.607,11.384-4.086C78.621,32.24,52.859,4.4,48.033,4.4ZM65.179,38.437c0,6.082-4.22,11.009-9.425,11.009-4.942,0-5.4-2.068-7.721-2.068s-2.777,2.068-7.719,2.068c-5.206,0-9.426-4.928-9.426-11.009,0-5.723,3.568-11.49,10.987-10.845,3.737,0.322,4.723,1.9,6.158,1.9s2.424-1.579,6.159-1.9C61.61,26.946,65.179,32.714,65.179,38.437ZM48.033-.017c-8.4,0-25.286,21.061-25.448,21.272-7.017,9.207-9.83,15.961-8.6,20.649,1.543,5.859,7.835,6.352,13.831,6.419a17.6,17.6,0,0,1,.262,5.3l-0.084.169c-3.373,6.772-2.018,12.185,4.263,17.034A22.993,22.993,0,0,0,34.63,72.4l0.809,0.459,0.876-.309a7.987,7.987,0,0,0,2.616-1.668q0.112-.1.222-0.219a11.164,11.164,0,0,0,4.3,3.239l0.684,0.263,0.693-.234a8.227,8.227,0,0,0,3.2-2.107,8.239,8.239,0,0,0,3.2,2.107l0.694,0.234,0.684-.263a11.163,11.163,0,0,0,4.3-3.239c0.074,0.076.148,0.15,0.222,0.22a8,8,0,0,0,2.615,1.667l0.876,0.31,0.809-.46a23.1,23.1,0,0,0,2.373-1.577c6.282-4.849,7.637-10.262,4.264-17.034l-0.085-.168a17.585,17.585,0,0,1,.262-5.3c6-.068,12.286-0.56,13.829-6.419,1.233-4.686-1.579-11.439-8.6-20.649C73.321,21.043,56.433-.017,48.033-0.017ZM80.1,41.372c-1.159,4.4-6.054,4.854-13.383,4.891a18,18,0,0,0-.686,8.024c0.054,0.126.13,0.268,0.213,0.433,3.049,6.12,1.6,10.388-3.677,14.461A20.912,20.912,0,0,1,60.429,70.6a6.036,6.036,0,0,1-1.9-1.231,6.709,6.709,0,0,1-1.749-3.15,8.352,8.352,0,0,1-4.9,5.751,6.014,6.014,0,0,1-3.852-4.7,6.01,6.01,0,0,1-3.849,4.7,8.348,8.348,0,0,1-4.9-5.751,6.705,6.705,0,0,1-1.75,3.15,6.036,6.036,0,0,1-1.9,1.231A20.817,20.817,0,0,1,33.5,69.182c-5.276-4.073-6.724-8.34-3.676-14.461,0.082-.166.157-0.307,0.213-0.433a18.026,18.026,0,0,0-.686-8.024c-7.33-.038-12.226-0.489-13.385-4.891-0.641-2.44-.279-7.676,8.242-18.855C27.672,17.976,41.86,2.054,48.033,2.054S68.395,17.976,71.856,22.518C80.377,33.7,80.74,38.932,80.1,41.372Z" transform="translate(-13.719)"/>
</svg>
